<svg width="25" height="20" viewBox="0 0 25 20" fill="none" xmlns="http://www.w3.org/2000/svg">
<path d="M24.5086 9.99958C24.5086 10.2648 24.4032 10.5192 24.2157 10.7067C24.0282 10.8942 23.7738 10.9996 23.5086 10.9996H3.92235L11.2161 18.2921C11.309 18.385 11.3827 18.4953 11.433 18.6167C11.4833 18.7381 11.5092 18.8682 11.5092 18.9996C11.5092 19.131 11.4833 19.2611 11.433 19.3825C11.3827 19.5039 11.309 19.6142 11.2161 19.7071C11.1232 19.8 11.0129 19.8737 10.8915 19.924C10.7701 19.9743 10.64 20.0001 10.5086 20.0001C10.3772 20.0001 10.2471 19.9743 10.1257 19.924C10.0043 19.8737 9.89401 19.8 9.8011 19.7071L0.801099 10.7071C0.708123 10.6142 0.634364 10.5039 0.584039 10.3825C0.533715 10.2611 0.507813 10.131 0.507812 9.99958C0.507813 9.86816 0.533715 9.73804 0.584039 9.61664C0.634364 9.49524 0.708123 9.38495 0.801099 9.29208L9.8011 0.292079C9.98874 0.104439 10.2432 -0.000976564 10.5086 -0.000976562C10.774 -0.000976561 11.0285 0.104439 11.2161 0.292079C11.4037 0.47972 11.5092 0.734215 11.5092 0.999579C11.5092 1.26494 11.4037 1.51944 11.2161 1.70708L3.92235 8.99958H23.5086C23.7738 8.99958 24.0282 9.10494 24.2157 9.29247C24.4032 9.48001 24.5086 9.73436 24.5086 9.99958Z" fill="black"/>
</svg>
