<svg width="73" height="73" viewBox="0 0 73 73" fill="none" xmlns="http://www.w3.org/2000/svg">
<rect x="0.824463" y="0.381836" width="72" height="72" rx="36" fill="#EFEFEF"/>
<path d="M48.8245 36.3814C48.8245 36.6466 48.7192 36.901 48.5316 37.0885C48.3441 37.2761 48.0897 37.3814 47.8245 37.3814H28.2383L35.532 44.6739C35.6249 44.7668 35.6986 44.8771 35.7489 44.9985C35.7992 45.1199 35.8251 45.25 35.8251 45.3814C35.8251 45.5128 35.7992 45.6429 35.7489 45.7643C35.6986 45.8857 35.6249 45.996 35.532 46.0889C35.4391 46.1818 35.3288 46.2555 35.2074 46.3058C35.086 46.3561 34.9559 46.382 34.8245 46.382C34.6931 46.382 34.563 46.3561 34.4416 46.3058C34.3202 46.2555 34.2099 46.1818 34.117 46.0889L25.117 37.0889C25.024 36.996 24.9503 36.8858 24.9 36.7644C24.8496 36.643 24.8237 36.5128 24.8237 36.3814C24.8237 36.25 24.8496 36.1199 24.9 35.9985C24.9503 35.8771 25.024 35.7668 25.117 35.6739L34.117 26.6739C34.3047 26.4863 34.5592 26.3809 34.8245 26.3809C35.0899 26.3809 35.3444 26.4863 35.532 26.6739C35.7197 26.8616 35.8251 27.1161 35.8251 27.3814C35.8251 27.6468 35.7197 27.9013 35.532 28.0889L28.2383 35.3814H47.8245C48.0897 35.3814 48.3441 35.4868 48.5316 35.6743C48.7192 35.8618 48.8245 36.1162 48.8245 36.3814Z" fill="black"/>
</svg>
