<svg width="27" height="24" viewBox="0 0 27 24" fill="none" xmlns="http://www.w3.org/2000/svg">
<path d="M23.5876 3.38184H20.1226L18.4189 0.826836C18.3276 0.690025 18.204 0.57784 18.059 0.500218C17.914 0.422596 17.7521 0.381935 17.5876 0.381836H9.58765C9.42318 0.381935 9.26128 0.422596 9.11628 0.500218C8.97129 0.57784 8.84767 0.690025 8.7564 0.826836L7.0514 3.38184H3.58765C2.792 3.38184 2.02894 3.69791 1.46633 4.26052C0.903717 4.82312 0.587646 5.58619 0.587646 6.38184V20.3818C0.587646 21.1775 0.903717 21.9405 1.46633 22.5032C2.02894 23.0658 2.792 23.3818 3.58765 23.3818H23.5876C24.3833 23.3818 25.1464 23.0658 25.709 22.5032C26.2716 21.9405 26.5876 21.1775 26.5876 20.3818V6.38184C26.5876 5.58619 26.2716 4.82312 25.709 4.26052C25.1464 3.69791 24.3833 3.38184 23.5876 3.38184ZM24.5876 20.3818C24.5876 20.6471 24.4823 20.9014 24.2948 21.0889C24.1072 21.2765 23.8529 21.3818 23.5876 21.3818H3.58765C3.32243 21.3818 3.06808 21.2765 2.88054 21.0889C2.693 20.9014 2.58765 20.6471 2.58765 20.3818V6.38184C2.58765 6.11662 2.693 5.86227 2.88054 5.67473C3.06808 5.48719 3.32243 5.38184 3.58765 5.38184H7.58765C7.75232 5.38194 7.91448 5.34138 8.05971 5.26375C8.20494 5.18612 8.32875 5.07382 8.42015 4.93684L10.1226 2.38184H17.0514L18.7551 4.93684C18.8465 5.07382 18.9704 5.18612 19.1156 5.26375C19.2608 5.34138 19.423 5.38194 19.5876 5.38184H23.5876C23.8529 5.38184 24.1072 5.48719 24.2948 5.67473C24.4823 5.86227 24.5876 6.11662 24.5876 6.38184V20.3818ZM13.5876 7.38184C12.4998 7.38184 11.4365 7.70441 10.532 8.30875C9.62754 8.9131 8.92259 9.77208 8.50631 10.7771C8.09003 11.7821 7.98111 12.8879 8.19333 13.9548C8.40555 15.0217 8.92937 16.0017 9.69856 16.7709C10.4677 17.5401 11.4478 18.0639 12.5146 18.2762C13.5815 18.4884 14.6874 18.3795 15.6924 17.9632C16.6974 17.5469 17.5564 16.8419 18.1607 15.9375C18.7651 15.033 19.0876 13.9696 19.0876 12.8818C19.086 11.4237 18.506 10.0257 17.4749 8.99458C16.4438 7.96348 15.0458 7.38349 13.5876 7.38184ZM13.5876 16.3818C12.8954 16.3818 12.2187 16.1766 11.6432 15.792C11.0676 15.4074 10.619 14.8608 10.3541 14.2212C10.0892 13.5817 10.0198 12.878 10.1549 12.199C10.2899 11.5201 10.6233 10.8964 11.1128 10.407C11.6023 9.91748 12.2259 9.58414 12.9048 9.44909C13.5838 9.31404 14.2875 9.38335 14.927 9.64826C15.5666 9.91316 16.1132 10.3618 16.4978 10.9373C16.8824 11.5129 17.0876 12.1896 17.0876 12.8818C17.0876 13.8101 16.7189 14.7003 16.0625 15.3567C15.4061 16.0131 14.5159 16.3818 13.5876 16.3818Z" fill="white"/>
</svg>
