<svg width="27" height="23" viewBox="0 0 27 23" fill="none" xmlns="http://www.w3.org/2000/svg">
<path d="M24.5876 0.381836H2.58765C2.05721 0.381836 1.54851 0.59255 1.17343 0.967622C0.79836 1.34269 0.587646 1.8514 0.587646 2.38184V20.3818C0.587646 20.9123 0.79836 21.421 1.17343 21.796C1.54851 22.1711 2.05721 22.3818 2.58765 22.3818H24.5876C25.1181 22.3818 25.6268 22.1711 26.0019 21.796C26.3769 21.421 26.5876 20.9123 26.5876 20.3818V2.38184C26.5876 1.8514 26.3769 1.34269 26.0019 0.967622C25.6268 0.59255 25.1181 0.381836 24.5876 0.381836ZM24.5876 2.38184V15.2256L21.3289 11.9681C21.1432 11.7823 20.9227 11.635 20.68 11.5344C20.4373 11.4339 20.1772 11.3821 19.9145 11.3821C19.6518 11.3821 19.3917 11.4339 19.149 11.5344C18.9064 11.635 18.6859 11.7823 18.5001 11.9681L16.0001 14.4681L10.5001 8.96809C10.1251 8.5933 9.6166 8.38276 9.0864 8.38276C8.55619 8.38276 8.04768 8.5933 7.67265 8.96809L2.58765 14.0531V2.38184H24.5876ZM2.58765 16.8818L9.08765 10.3818L19.0876 20.3818H2.58765V16.8818ZM24.5876 20.3818H21.9164L17.4164 15.8818L19.9164 13.3818L24.5876 18.0543V20.3818ZM15.5876 7.88184C15.5876 7.58516 15.6756 7.29515 15.8404 7.04848C16.0053 6.80181 16.2395 6.60955 16.5136 6.49602C16.7877 6.38248 17.0893 6.35278 17.3803 6.41066C17.6713 6.46854 17.9385 6.6114 18.1483 6.82118C18.3581 7.03095 18.5009 7.29823 18.5588 7.5892C18.6167 7.88017 18.587 8.18177 18.4735 8.45586C18.3599 8.72995 18.1677 8.96422 17.921 9.12904C17.6743 9.29386 17.3843 9.38184 17.0876 9.38184C16.6898 9.38184 16.3083 9.2238 16.027 8.9425C15.7457 8.66119 15.5876 8.27966 15.5876 7.88184Z" fill="black"/>
</svg>
